<svg width="221" height="220" viewBox="0 0 221 220" fill="none" xmlns="http://www.w3.org/2000/svg">
<path fill-rule="evenodd" clip-rule="evenodd" d="M110.532 219.747C171.213 219.747 220.405 170.555 220.405 109.873C220.405 49.192 171.213 0 110.532 0C49.8502 0 0.658203 49.192 0.658203 109.873C0.658203 170.555 49.8502 219.747 110.532 219.747ZM77.4035 73.8073C60.2167 83.9442 64.3382 111.053 83.8582 116.262L116.457 124.96C119.175 125.686 119.667 129.412 117.234 130.847L85.7229 149.365L82.3916 182.076L143.66 145.939C160.847 135.802 156.725 108.693 137.205 103.485L104.606 94.7863C101.888 94.061 101.396 90.3348 103.829 88.8999L135.34 70.3821L138.672 37.6708L77.4035 73.8073Z" fill="#5733FF"></path>
</svg>