<svg width="567" height="184" viewBox="0 0 567 184" fill="none" xmlns="http://www.w3.org/2000/svg">
<path d="M48.5401 43.8186H8.8818V8.29138H106.582L55.3563 127.679H99.3522V162.174H0L48.5401 44.0251V43.8186Z" fill="#111827"></path>
<path d="M155.12 7.88797V162.183H117.528V7.88797H155.12Z" fill="#111827"></path>
<path d="M170.822 6.43564H175.779C178.257 6.43564 180.943 6.43564 183.628 6.43564H191.27C193.749 6.43564 195.401 6.43564 196.434 6.43564C202.424 6.43564 208.414 6.64221 214.404 7.26187C220.394 7.88153 226.178 8.70773 231.342 10.1536C236.712 11.5995 241.876 13.665 246.42 16.1437C250.964 18.6223 255.095 21.9272 258.4 25.8517C261.912 29.7762 264.39 34.5269 266.456 40.3104C268.315 45.8874 269.348 52.4971 269.348 60.1395C269.348 69.8476 267.695 77.6966 264.597 84.3063C261.292 90.7095 257.161 95.8733 251.584 100.004C246.214 104.135 239.81 107.234 232.581 109.299C225.558 111.365 217.916 112.811 209.86 113.843V162.59H170.822V7.05531V6.43564ZM210.893 76.0442C213.578 76.0442 216.057 75.8376 217.916 75.0114C219.981 74.1852 221.634 72.9459 222.873 71.5C224.319 69.8475 225.352 68.1952 225.971 65.9231C226.591 63.8575 227.004 61.5854 227.004 59.1068C227.004 56.6282 227.004 54.5626 226.384 52.4971C225.971 50.225 225.352 48.366 224.319 46.7136C223.493 44.8546 222.047 43.6153 220.394 42.5825C218.742 41.5497 216.676 40.9301 214.198 40.9301C214.198 40.9301 213.372 40.9301 212.545 40.9301H210.893V75.6311V76.0442Z" fill="#111827"></path>
<path d="M363.187 6.4336C413.29 -1.63345 497.292 -0.00132704 510.666 0.423834C511.469 0.36149 512.153 1.35256 511.599 2.02247C508.74 6.84163 498.385 21.8549 470.304 42.8408C469.533 43.3186 469.863 44.9647 470.868 44.8867C480.6 45.3843 513.123 45.7824 564.764 40.3213C565.731 40.2826 566.362 41.0489 566.032 41.8916C562.627 50.097 545.069 84.2665 484.428 112.794C483.255 113.303 483.601 115.157 484.806 115.063L535.757 115.289C536.777 115.419 537.476 116.618 536.721 117.304C525.603 130.287 458.24 202.384 359.051 179.571C319.944 170.486 292.884 134.344 292.726 90.6816C292.569 47.0199 318.862 13.4256 363.187 6.4336ZM436.199 56.0498C435.111 56.0498 434.118 56.4342 433.222 57.2022C432.391 57.9061 431.878 58.7701 431.686 59.794L420.934 124.506C420.742 125.53 420.934 126.426 421.51 127.194C422.15 127.898 422.983 128.25 424.007 128.25H436.678C437.766 128.25 438.726 127.898 439.558 127.194C440.454 126.426 440.999 125.53 441.191 124.506L451.943 59.794C452.135 58.77 451.91 57.9062 451.27 57.2022C450.694 56.4342 449.895 56.0498 448.871 56.0498H436.199ZM377.991 55.8955V55.9912H377.895V55.8955C376.039 55.9595 374.471 56.2478 373.191 56.7598C371.975 57.2718 370.919 58.1357 370.023 59.3516L327.048 122.296C326.28 123.384 326.119 124.44 326.567 125.464C327.015 126.488 327.847 127 329.063 127H345.287C346.567 127 347.623 126.423 348.455 125.271C348.464 125.261 352.04 120.886 354.309 118.063C355.049 117.143 361.193 110.71 361.199 110.703H388.647L394.376 126.271C394.76 127.423 395.528 128 396.679 128H411.943C413.031 128 413.928 127.488 414.632 126.464C415.335 125.44 415.528 124.384 415.208 123.296L392.008 59.3516C391.752 58.7117 391.399 58.1676 390.951 57.7197C390.567 57.208 390.183 56.8551 389.8 56.6631C389.48 56.4073 389.095 56.2476 388.647 56.1836C388.199 56.0557 387.879 55.9912 387.687 55.9912H384.903C383.879 55.9272 383.143 55.8955 382.695 55.8955H377.991ZM375.593 80.876C375.838 80.209 376.781 80.2091 377.025 80.876L377.755 82.8672C378.327 84.4294 379.233 85.849 380.409 87.0254C381.585 88.2017 383.005 89.1068 384.567 89.6787L386.558 90.4082C387.227 90.6523 387.227 91.5967 386.558 91.8408L384.567 92.5703C383.005 93.1423 381.585 94.0473 380.409 95.2236C379.232 96.4001 378.327 97.8195 377.755 99.3818L377.025 101.373C376.781 102.041 375.838 102.041 375.593 101.373L374.864 99.3818C374.292 97.8196 373.386 96.4 372.21 95.2236C371.033 94.0476 369.614 93.1422 368.052 92.5703L366.06 91.8408C365.394 91.5964 365.394 90.6525 366.06 90.4082L368.052 89.6787C369.615 89.1068 371.033 88.2016 372.21 87.0254C373.386 85.8489 374.292 84.4296 374.864 82.8672L375.593 80.876ZM386.076 75.0088C386.198 74.6638 386.669 74.6639 386.792 75.0088L387.157 76.0391C387.443 76.8473 387.896 77.5818 388.484 78.1904C389.072 78.7989 389.781 79.2675 390.562 79.5635L391.558 79.9414C391.892 80.0678 391.892 80.5563 391.558 80.6826L390.562 81.0596C389.781 81.3555 389.072 81.8249 388.484 82.4336C387.896 83.0423 387.443 83.7766 387.157 84.585L386.792 85.6152C386.67 85.9609 386.198 85.9609 386.076 85.6152L385.712 84.585C385.426 83.7768 384.972 83.0422 384.384 82.4336C383.796 81.825 383.086 81.3555 382.305 81.0596L381.309 80.6826C380.976 80.5561 380.976 80.0679 381.309 79.9414L382.305 79.5635C383.086 79.2675 383.796 78.7991 384.384 78.1904C384.973 77.5817 385.426 76.8474 385.712 76.0391L386.076 75.0088ZM564.764 40.3213C564.742 40.3222 564.72 40.3215 564.697 40.3232L564.898 40.3076C564.854 40.3123 564.809 40.3166 564.764 40.3213Z" fill="#FF580E"></path>
</svg>