<svg width="16" height="16" viewBox="0 0 16 16" fill="none" xmlns="http://www.w3.org/2000/svg">
<path d="M7.66557 1.63428V12.3359C7.66557 12.5029 7.59925 12.663 7.48119 12.781C7.36314 12.8991 7.20302 12.9654 7.03607 12.9654H3.25902C2.9251 12.9654 2.60487 12.8328 2.36876 12.5967C2.13265 12.3606 2 12.0403 2 11.7064V2.89329C2 2.55938 2.13265 2.23915 2.36876 2.00303C2.60487 1.76692 2.9251 1.63428 3.25902 1.63428H12.0721C12.406 1.63428 12.7263 1.76692 12.9624 2.00303C13.1985 2.23915 13.3311 2.55938 13.3311 2.89329V6.67034C13.3311 6.8373 13.2648 6.99742 13.1468 7.11547C13.0287 7.23353 12.8686 7.29985 12.7016 7.29985H2" stroke="#1E1E1E" stroke-linecap="round" stroke-linejoin="round"/>
<path d="M9.82953 9.36133V11.0295M9.82953 11.0295H11.4977M9.82953 11.0295L10.4697 10.3602C10.7091 10.1301 11 9.96049 11.3182 9.8655C11.6363 9.77052 11.9726 9.75289 12.2989 9.81409C12.6253 9.87528 12.9323 10.0135 13.1945 10.2173C13.4566 10.4211 13.6663 10.6846 13.8061 10.9857M14 14.3659V12.6977M14 12.6977H12.3318M14 12.6977L13.3599 13.3671C13.1204 13.5972 12.8296 13.7668 12.5114 13.8617C12.1932 13.9567 11.857 13.9744 11.5306 13.9132C11.2043 13.852 10.8972 13.7137 10.6351 13.5099C10.3729 13.3061 10.1632 13.0427 10.0235 12.7415" stroke="#1E1E1E" stroke-linecap="round" stroke-linejoin="round"/>
<path d="M12.8333 6.61068C14.5822 6.61068 16 5.19291 16 3.44401C16 1.69511 14.5822 0.277344 12.8333 0.277344C11.0844 0.277344 9.66663 1.69511 9.66663 3.44401C9.66663 5.19291 11.0844 6.61068 12.8333 6.61068Z" fill="#1E1E1E"/>
<path d="M11.8747 2.40351C11.3771 2.69304 11.4947 3.48018 12.0647 3.62494L13.0057 3.87827C13.0871 3.89637 13.0961 4.00494 13.0238 4.05018L12.119 4.58399L12.0195 5.52494L13.7838 4.48446C14.2814 4.19494 14.1638 3.4078 13.5938 3.26304L12.6528 3.0097C12.5714 2.99161 12.5623 2.88304 12.6347 2.8378L13.5395 2.30399L13.639 1.36304L11.8747 2.40351Z" fill="white"/>
</svg>
